<?xml version="1.0" encoding="UTF-8"?>
<svg xmlns="http://www.w3.org/2000/svg" xmlns:xlink="http://www.w3.org/1999/xlink" width="2835" height="2835" viewBox="0 0 2835 2835">
<path fill-rule="evenodd" fill="rgb(100%, 100%, 100%)" fill-opacity="1" d="M 0 0.351562 L 2834.648438 0.351562 L 2834.648438 2835 L 0 2835 L 0 0.351562 "/>
<path fill-rule="nonzero" fill="rgb(0%, 52.929688%, 3.529358%)" fill-opacity="1" d="M 1189.03125 765.449219 L 1362.941406 1296.328125 L 1135.558594 786.089844 C 1134 782.628906 1133.171875 778.980469 1133.078125 775.191406 C 1132.980469 771.339844 1133.558594 767.691406 1134.921875 764.140625 C 1136.339844 760.539062 1138.28125 757.371094 1140.910156 754.648438 C 1143.539062 751.878906 1146.601562 749.691406 1150.058594 748.179688 C 1153.558594 746.621094 1157.210938 745.800781 1161.011719 745.699219 C 1164.800781 745.601562 1168.5 746.230469 1172.050781 747.589844 C 1175.609375 748.960938 1178.769531 750.910156 1181.488281 753.53125 C 1184.269531 756.160156 1186.460938 759.230469 1187.960938 762.679688 C 1188.398438 763.601562 1188.738281 764.53125 1189.03125 765.449219 "/>
<path fill-rule="nonzero" fill="rgb(0%, 52.929688%, 3.529358%)" fill-opacity="1" d="M 1635.640625 2083.652344 C 1637.199219 2087.15625 1639.339844 2090.222656 1642.109375 2092.800781 C 1644.878906 2095.429688 1648.050781 2097.421875 1651.601562 2098.785156 C 1655.148438 2100.148438 1658.851562 2100.78125 1662.640625 2100.6875 C 1666.441406 2100.585938 1670.089844 2099.761719 1673.539062 2098.203125 C 1677.050781 2096.644531 1680.109375 2094.503906 1682.691406 2091.730469 C 1685.320312 2088.953125 1687.308594 2085.796875 1688.679688 2082.242188 C 1690.039062 2078.691406 1690.671875 2074.992188 1690.578125 2071.195312 C 1690.480469 2067.402344 1689.648438 2063.75 1688.089844 2060.296875 L 1460.699219 1550.050781 L 1634.609375 2080.929688 C 1634.910156 2081.855469 1635.25 2082.777344 1635.640625 2083.652344 "/>
<path fill-rule="nonzero" fill="rgb(0%, 52.929688%, 3.529358%)" fill-opacity="1" d="M 786.714844 1114.488281 C 783.160156 1113.078125 779.464844 1112.449219 775.621094 1112.5 C 771.824219 1112.589844 768.128906 1113.421875 764.671875 1114.980469 C 761.164062 1116.488281 758.050781 1118.679688 755.425781 1121.449219 C 752.796875 1124.230469 750.804688 1127.390625 749.441406 1130.941406 C 748.078125 1134.539062 747.445312 1138.238281 747.542969 1142.078125 C 747.640625 1145.878906 748.46875 1149.570312 750.070312 1153.03125 C 751.628906 1156.53125 753.816406 1159.601562 756.59375 1162.230469 C 759.414062 1164.800781 762.578125 1166.800781 766.179688 1168.160156 L 1287.570312 1368.058594 L 789.441406 1115.710938 C 788.5625 1115.269531 787.640625 1114.828125 786.714844 1114.488281 "/>
<path fill-rule="nonzero" fill="rgb(0%, 52.929688%, 3.529358%)" fill-opacity="1" d="M 2036.929688 1731.890625 C 2040.488281 1733.25 2044.140625 1733.878906 2047.980469 1733.738281 C 2051.78125 1733.640625 2055.429688 1732.808594 2058.878906 1731.308594 C 2062.390625 1729.75 2065.398438 1727.558594 2068.03125 1724.828125 C 2070.660156 1722.058594 2072.648438 1718.898438 2074.011719 1715.351562 C 2075.378906 1711.789062 2076.011719 1708.089844 2075.910156 1704.300781 C 2075.820312 1700.460938 2074.988281 1696.800781 2073.429688 1693.351562 C 2071.871094 1689.898438 2069.730469 1686.828125 2066.960938 1684.199219 C 2064.179688 1681.570312 2061.019531 1679.578125 2057.46875 1678.21875 L 1536.078125 1478.269531 L 2034.210938 1730.671875 C 2035.089844 1731.109375 2036.011719 1731.5 2036.929688 1731.890625 "/>
<path fill-rule="nonzero" fill="rgb(0%, 52.929688%, 3.529358%)" fill-opacity="1" d="M 751.628906 1647.078125 C 748.175781 1648.628906 745.109375 1650.820312 742.484375 1653.550781 C 739.855469 1656.320312 737.859375 1659.480469 736.496094 1663.039062 C 735.136719 1666.589844 734.503906 1670.289062 734.648438 1674.078125 C 734.746094 1677.929688 735.574219 1681.570312 737.082031 1685.03125 C 738.636719 1688.53125 740.828125 1691.550781 743.554688 1694.179688 C 746.324219 1696.800781 749.488281 1698.800781 753.039062 1700.160156 C 756.59375 1701.53125 760.289062 1702.160156 764.085938 1702.058594 C 767.882812 1701.960938 771.535156 1701.140625 775.035156 1699.578125 L 1285.039062 1472.101562 L 754.402344 1646.050781 C 753.480469 1646.351562 752.554688 1646.730469 751.628906 1647.078125 "/>
<path fill-rule="nonzero" fill="rgb(0%, 52.929688%, 3.529358%)" fill-opacity="1" d="M 2072.019531 1199.261719 C 2075.46875 1197.699219 2078.539062 1195.558594 2081.121094 1192.789062 C 2083.75 1190.011719 2085.738281 1186.851562 2087.101562 1183.300781 C 2088.46875 1179.738281 2089.101562 1176.050781 2089 1172.25 C 2088.910156 1168.460938 2088.078125 1164.800781 2086.519531 1161.300781 C 2084.960938 1157.851562 2082.820312 1154.78125 2080.050781 1152.160156 C 2077.269531 1149.53125 2074.109375 1147.53125 2070.558594 1146.171875 C 2067.011719 1144.808594 2063.359375 1144.179688 2059.511719 1144.320312 C 2055.71875 1144.421875 2052.070312 1145.25 2048.621094 1146.75 L 1538.609375 1374.289062 L 2069.25 1200.328125 C 2070.171875 1199.988281 2071.089844 1199.648438 2072.019531 1199.261719 "/>
<path fill-rule="nonzero" fill="rgb(0%, 52.929688%, 3.529358%)" fill-opacity="1" d="M 1103.300781 2048.570312 C 1101.929688 2052.121094 1101.351562 2055.769531 1101.488281 2059.566406 C 1101.589844 2063.363281 1102.421875 2066.964844 1103.980469 2070.417969 C 1105.53125 2073.875 1107.71875 2076.9375 1110.449219 2079.515625 C 1113.21875 2082.144531 1116.339844 2084.089844 1119.890625 2085.453125 C 1123.441406 2086.816406 1127.089844 2087.449219 1130.890625 2087.351562 C 1134.679688 2087.253906 1138.28125 2086.425781 1141.738281 2084.917969 C 1145.238281 2083.363281 1148.261719 2081.269531 1150.878906 2078.496094 C 1153.511719 2075.769531 1155.511719 2072.65625 1156.921875 2069.105469 L 1356.71875 1547.46875 L 1104.460938 2045.894531 C 1104.03125 2046.769531 1103.640625 2047.644531 1103.300781 2048.570312 "/>
<path fill-rule="nonzero" fill="rgb(0%, 52.929688%, 3.529358%)" fill-opacity="1" d="M 1720.351562 797.761719 C 1721.621094 794.261719 1722.148438 790.609375 1722.011719 786.859375 C 1721.808594 783.121094 1720.941406 779.519531 1719.378906 776.109375 C 1717.820312 772.699219 1715.679688 769.738281 1712.910156 767.160156 C 1710.179688 764.628906 1707.070312 762.628906 1703.570312 761.320312 C 1700.058594 759.960938 1696.460938 759.320312 1692.710938 759.421875 C 1688.921875 759.519531 1685.371094 760.300781 1681.910156 761.800781 C 1678.460938 763.261719 1675.441406 765.359375 1672.808594 768.03125 C 1670.191406 770.710938 1668.140625 773.769531 1666.730469 777.28125 L 1466.878906 1298.910156 L 1719.179688 800.539062 C 1719.628906 799.609375 1720.011719 798.738281 1720.351562 797.761719 "/>
<path fill-rule="nonzero" fill="rgb(83.201599%, 13.719177%, 13.719177%)" fill-opacity="1" d="M 1446.011719 858.148438 L 1417.351562 1254.78125 L 1388.640625 858.148438 C 1388.390625 854.359375 1388.828125 850.660156 1390.050781 847.011719 C 1391.21875 843.410156 1393.070312 840.148438 1395.601562 837.28125 C 1398.078125 834.359375 1401 832.070312 1404.449219 830.371094 C 1407.859375 828.660156 1411.460938 827.640625 1415.25 827.351562 C 1419.050781 827.109375 1422.75 827.539062 1426.398438 828.761719 C 1430 829.980469 1433.261719 831.820312 1436.128906 834.308594 C 1439.050781 836.789062 1441.339844 839.761719 1443.039062 843.160156 C 1444.738281 846.570312 1445.71875 850.21875 1446.011719 854.011719 C 1446.109375 855.378906 1446.109375 856.789062 1446.011719 858.148438 "/>
<path fill-rule="nonzero" fill="rgb(83.201599%, 13.719177%, 13.719177%)" fill-opacity="1" d="M 1446.011719 510.71875 C 1445.570312 506.921875 1444.449219 503.371094 1442.601562 500.011719 C 1440.75 496.660156 1438.320312 493.78125 1435.351562 491.398438 C 1432.378906 489.019531 1429.03125 487.261719 1425.378906 486.191406 C 1421.679688 485.121094 1417.929688 484.828125 1414.140625 485.21875 C 1410.339844 485.660156 1406.789062 486.78125 1403.429688 488.628906 C 1400.070312 490.480469 1397.199219 492.910156 1394.820312 495.878906 C 1392.429688 498.890625 1390.679688 502.199219 1389.609375 505.898438 C 1388.539062 509.550781 1388.25 513.300781 1388.640625 517.089844 L 1417.351562 775.71875 L 1446.011719 517.089844 C 1446.25 514.949219 1446.25 512.859375 1446.011719 510.71875 "/>
<path fill-rule="nonzero" fill="rgb(83.201599%, 13.719177%, 13.719177%)" fill-opacity="1" d="M 1388.640625 1981.320312 C 1388.929688 1985.117188 1389.898438 1988.71875 1391.660156 1992.171875 C 1393.359375 1995.578125 1395.648438 1998.5 1398.519531 2001.027344 C 1401.390625 2003.511719 1404.648438 2005.359375 1408.300781 2006.527344 C 1411.898438 2007.742188 1415.601562 2008.230469 1419.390625 2007.9375 C 1423.191406 2007.644531 1426.839844 2006.671875 1430.238281 2004.972656 C 1433.648438 2003.265625 1436.570312 2000.933594 1439.050781 1998.0625 C 1441.578125 1995.191406 1443.429688 1991.929688 1444.601562 1988.328125 C 1445.808594 1984.679688 1446.300781 1980.980469 1446.011719 1977.183594 L 1417.351562 1580.558594 L 1388.640625 1977.183594 C 1388.539062 1978.597656 1388.539062 1979.957031 1388.640625 1981.320312 "/>
<path fill-rule="nonzero" fill="rgb(83.201599%, 13.719177%, 13.719177%)" fill-opacity="1" d="M 1388.640625 2324.617188 C 1389.078125 2328.414062 1390.191406 2332.011719 1392.039062 2335.371094 C 1393.890625 2338.679688 1396.328125 2341.597656 1399.289062 2343.980469 C 1402.308594 2346.371094 1405.621094 2348.070312 1409.320312 2349.140625 C 1412.96875 2350.210938 1416.71875 2350.554688 1420.511719 2350.117188 C 1424.300781 2349.679688 1427.910156 2348.558594 1431.261719 2346.710938 C 1434.621094 2344.863281 1437.488281 2342.476562 1439.878906 2339.460938 C 1442.261719 2336.488281 1443.96875 2333.132812 1445.039062 2329.484375 C 1446.109375 2325.785156 1446.441406 2322.039062 1446.011719 2318.242188 L 1417.351562 2059.613281 L 1388.640625 2318.242188 C 1388.441406 2320.382812 1388.441406 2322.476562 1388.640625 2324.617188 "/>
<path fill-rule="nonzero" fill="rgb(83.201599%, 13.719177%, 13.719177%)" fill-opacity="1" d="M 1039.210938 998.828125 C 1036.339844 996.300781 1033.078125 994.449219 1029.480469 993.28125 C 1025.828125 992.058594 1022.128906 991.621094 1018.339844 991.871094 C 1014.539062 992.160156 1010.941406 993.128906 1007.53125 994.839844 C 1004.128906 996.589844 1001.160156 998.871094 998.675781 1001.75 C 996.195312 1004.621094 994.347656 1007.878906 993.128906 1011.53125 C 991.914062 1015.128906 991.476562 1018.820312 991.71875 1022.671875 C 992.007812 1026.46875 992.984375 1030.070312 994.734375 1033.46875 C 996.4375 1036.878906 998.726562 1039.851562 1001.601562 1042.328125 L 1302.21875 1302.511719 L 1042.179688 1001.75 C 1041.25 1000.71875 1040.28125 999.75 1039.210938 998.828125 "/>
<path fill-rule="nonzero" fill="rgb(83.201599%, 13.719177%, 13.719177%)" fill-opacity="1" d="M 796.589844 756.058594 C 793.625 753.78125 790.265625 752.121094 786.664062 751.101562 C 783.015625 750.078125 779.316406 749.828125 775.523438 750.269531 C 771.773438 750.710938 768.269531 751.878906 764.964844 753.730469 C 761.652344 755.570312 758.832031 757.960938 756.449219 760.878906 C 754.109375 763.851562 752.359375 767.160156 751.289062 770.761719 C 750.21875 774.410156 749.878906 778.109375 750.269531 781.851562 C 750.65625 785.648438 751.726562 789.199219 753.527344 792.511719 C 755.328125 795.871094 757.664062 798.738281 760.585938 801.171875 L 963.640625 963.789062 L 801.117188 760.589844 C 799.753906 758.929688 798.246094 757.421875 796.589844 756.058594 "/>
<path fill-rule="nonzero" fill="rgb(83.201599%, 13.719177%, 13.719177%)" fill-opacity="1" d="M 1795.429688 1836.507812 C 1798.308594 1839.035156 1801.570312 1840.886719 1805.171875 1842.058594 C 1808.820312 1843.269531 1812.511719 1843.710938 1816.308594 1843.464844 C 1820.109375 1843.175781 1823.710938 1842.203125 1827.160156 1840.5 C 1830.570312 1838.746094 1833.488281 1836.460938 1835.96875 1833.589844 C 1838.5 1830.71875 1840.351562 1827.460938 1841.519531 1823.808594 C 1842.730469 1820.210938 1843.21875 1816.511719 1842.929688 1812.660156 C 1842.640625 1808.871094 1841.660156 1805.269531 1839.960938 1801.859375 C 1838.261719 1798.460938 1835.921875 1795.488281 1833.050781 1793.011719 L 1532.429688 1532.820312 L 1792.519531 1833.640625 C 1793.390625 1834.660156 1794.410156 1835.632812 1795.429688 1836.507812 "/>
<path fill-rule="nonzero" fill="rgb(83.201599%, 13.719177%, 13.719177%)" fill-opacity="1" d="M 2038.050781 2079.273438 C 2041.070312 2081.5625 2044.378906 2083.214844 2048.03125 2084.238281 C 2051.679688 2085.257812 2055.378906 2085.503906 2059.121094 2085.0625 C 2062.871094 2084.625 2066.421875 2083.457031 2069.730469 2081.609375 C 2072.988281 2079.808594 2075.859375 2077.378906 2078.199219 2074.457031 C 2080.578125 2071.488281 2082.289062 2068.179688 2083.359375 2064.578125 C 2084.429688 2060.929688 2084.769531 2057.230469 2084.378906 2053.484375 C 2083.988281 2049.6875 2082.921875 2046.136719 2081.121094 2042.828125 C 2079.371094 2039.46875 2077.03125 2036.601562 2074.109375 2034.167969 L 1871 1871.546875 L 2033.53125 2074.75 C 2034.890625 2076.402344 2036.398438 2077.910156 2038.050781 2079.273438 "/>
<path fill-rule="nonzero" fill="rgb(83.201599%, 13.719177%, 13.719177%)" fill-opacity="1" d="M 853.914062 1388.980469 C 850.117188 1389.269531 846.515625 1390.25 843.109375 1391.949219 C 839.703125 1393.660156 836.734375 1395.941406 834.253906 1398.859375 C 831.773438 1401.730469 829.925781 1404.988281 828.707031 1408.589844 C 827.492188 1412.238281 827.054688 1415.941406 827.296875 1419.738281 C 827.589844 1423.53125 828.5625 1427.179688 830.261719 1430.589844 C 832.019531 1433.988281 834.304688 1436.960938 837.171875 1439.441406 C 840.09375 1441.929688 843.308594 1443.769531 846.953125 1444.988281 C 850.558594 1446.160156 854.304688 1446.640625 858.097656 1446.351562 L 1254.53125 1417.691406 L 858.097656 1388.980469 C 856.6875 1388.890625 855.324219 1388.890625 853.914062 1388.980469 "/>
<path fill-rule="nonzero" fill="rgb(83.201599%, 13.719177%, 13.719177%)" fill-opacity="1" d="M 510.8125 1388.980469 C 507.015625 1389.421875 503.417969 1390.539062 500.058594 1392.390625 C 496.75 1394.238281 493.828125 1396.621094 491.445312 1399.640625 C 489.058594 1402.609375 487.355469 1405.960938 486.289062 1409.621094 C 485.21875 1413.308594 484.875 1417.058594 485.3125 1420.859375 C 485.75 1424.648438 486.871094 1428.25 488.71875 1431.609375 C 490.570312 1434.96875 492.953125 1437.839844 495.96875 1440.21875 C 498.9375 1442.609375 502.296875 1444.308594 505.945312 1445.378906 C 509.644531 1446.449219 513.390625 1446.789062 517.183594 1446.351562 L 775.71875 1417.691406 L 517.183594 1388.980469 C 515.046875 1388.738281 512.953125 1388.738281 510.8125 1388.980469 "/>
<path fill-rule="nonzero" fill="rgb(83.201599%, 13.719177%, 13.719177%)" fill-opacity="1" d="M 1980.730469 1446.351562 C 1984.53125 1446.058594 1988.128906 1445.089844 1991.53125 1443.378906 C 1994.941406 1441.679688 1997.910156 1439.390625 2000.390625 1436.46875 C 2002.871094 1433.601562 2004.71875 1430.339844 2005.941406 1426.738281 C 2007.160156 1423.089844 2007.589844 1419.390625 2007.300781 1415.601562 C 2007.058594 1411.808594 2006.039062 1408.199219 2004.328125 1404.75 C 2002.628906 1401.339844 2000.339844 1398.421875 1997.46875 1395.890625 C 1994.550781 1393.410156 1991.339844 1391.558594 1987.691406 1390.390625 C 1984.089844 1389.179688 1980.390625 1388.691406 1976.601562 1388.980469 L 1580.160156 1417.691406 L 1976.601562 1446.351562 C 1977.960938 1446.449219 1979.371094 1446.449219 1980.730469 1446.351562 "/>
<path fill-rule="nonzero" fill="rgb(83.201599%, 13.719177%, 13.719177%)" fill-opacity="1" d="M 2323.839844 1446.351562 C 2327.628906 1445.921875 2331.230469 1444.800781 2334.589844 1442.949219 C 2337.949219 1441.101562 2340.820312 1438.710938 2343.199219 1435.699219 C 2345.578125 1432.730469 2347.339844 1429.371094 2348.359375 1425.71875 C 2349.429688 1422.019531 2349.769531 1418.269531 2349.328125 1414.480469 C 2348.941406 1410.691406 2347.769531 1407.078125 2345.929688 1403.730469 C 2344.078125 1400.371094 2341.691406 1397.5 2338.679688 1395.109375 C 2335.710938 1392.730469 2332.351562 1391.019531 2328.699219 1389.960938 C 2325 1388.890625 2321.300781 1388.550781 2317.460938 1388.980469 L 2058.980469 1417.691406 L 2317.460938 1446.351562 C 2319.601562 1446.601562 2321.738281 1446.601562 2323.839844 1446.351562 "/>
<path fill-rule="nonzero" fill="rgb(83.201599%, 13.719177%, 13.719177%)" fill-opacity="1" d="M 998.675781 1795.929688 C 996.195312 1798.851562 994.347656 1802.109375 993.128906 1805.710938 C 991.914062 1809.308594 991.476562 1813.058594 991.71875 1816.851562 C 992.007812 1820.640625 993.03125 1824.25 994.734375 1827.648438 C 996.4375 1831.058594 998.726562 1834.03125 1001.601562 1836.507812 C 1004.519531 1839.035156 1007.730469 1840.886719 1011.378906 1842.058594 C 1014.980469 1843.269531 1018.679688 1843.757812 1022.519531 1843.464844 C 1026.320312 1843.175781 1029.921875 1842.203125 1033.320312 1840.5 C 1036.730469 1838.796875 1039.699219 1836.460938 1042.179688 1833.589844 L 1302.21875 1532.820312 L 1001.601562 1793.011719 C 1000.578125 1793.929688 999.601562 1794.910156 998.675781 1795.929688 "/>
<path fill-rule="nonzero" fill="rgb(83.201599%, 13.719177%, 13.719177%)" fill-opacity="1" d="M 756.058594 2038.691406 C 753.722656 2041.660156 752.066406 2045.019531 751.097656 2048.664062 C 750.070312 2052.316406 749.78125 2056.015625 750.269531 2059.761719 C 750.707031 2063.507812 751.824219 2067.058594 753.671875 2070.367188 C 755.523438 2073.675781 757.90625 2076.5 760.878906 2078.835938 C 763.84375 2081.21875 767.105469 2082.925781 770.753906 2083.992188 C 774.355469 2085.0625 778.050781 2085.40625 781.847656 2085.015625 C 785.59375 2084.625 789.148438 2083.554688 792.453125 2081.804688 C 795.8125 2080.003906 798.683594 2077.664062 801.117188 2074.75 L 963.640625 1871.546875 L 760.535156 2034.167969 C 758.882812 2035.53125 757.371094 2037.035156 756.058594 2038.691406 "/>
<path fill-rule="nonzero" fill="rgb(83.201599%, 13.719177%, 13.719177%)" fill-opacity="1" d="M 1835.96875 1039.410156 C 1838.5 1036.488281 1840.351562 1033.230469 1841.519531 1029.628906 C 1842.730469 1026.03125 1843.171875 1022.28125 1842.929688 1018.488281 C 1842.640625 1014.691406 1841.660156 1011.089844 1839.960938 1007.679688 C 1838.210938 1004.28125 1835.921875 1001.308594 1833.050781 998.828125 C 1830.179688 996.300781 1826.921875 994.449219 1823.269531 993.28125 C 1819.671875 992.058594 1815.96875 991.578125 1812.179688 991.871094 C 1808.328125 992.160156 1804.730469 993.128906 1801.320312 994.839844 C 1797.921875 996.589844 1795 998.871094 1792.46875 1001.75 L 1532.429688 1302.511719 L 1833.101562 1042.328125 C 1834.121094 1041.398438 1835.089844 1040.429688 1835.96875 1039.410156 "/>
<path fill-rule="nonzero" fill="rgb(83.201599%, 13.719177%, 13.719177%)" fill-opacity="1" d="M 2078.589844 796.640625 C 2081.070312 793.679688 2082.871094 790.320312 2083.988281 786.621094 C 2085.160156 782.921875 2085.5 779.128906 2085.109375 775.28125 C 2084.71875 771.441406 2083.601562 767.789062 2081.75 764.429688 C 2079.898438 761.03125 2077.46875 758.109375 2074.449219 755.671875 C 2071.390625 753.238281 2068.03125 751.539062 2064.328125 750.46875 C 2060.589844 749.390625 2056.789062 749.109375 2052.941406 749.539062 C 2049.101562 750.03125 2045.5 751.199219 2042.140625 753.140625 C 2038.78125 755.039062 2035.910156 757.519531 2033.578125 760.589844 L 1871 963.789062 L 2074.109375 801.171875 C 2075.769531 799.808594 2077.269531 798.300781 2078.589844 796.640625 "/>
<path fill-rule="nonzero" fill="rgb(100%, 70.117188%, 0%)" fill-opacity="1" d="M 708.519531 860.878906 L 754.0625 897.171875 L 802.625 865.058594 L 782.1875 919.609375 L 827.734375 955.910156 L 769.585938 953.328125 L 749.101562 1007.878906 L 733.628906 951.71875 L 675.429688 949.101562 L 724.039062 917.03125 L 708.519531 860.878906 "/>
<path fill-rule="nonzero" fill="rgb(100%, 70.117188%, 0%)" fill-opacity="1" d="M 559.761719 1205.921875 L 605.261719 1242.21875 L 653.875 1210.109375 L 633.386719 1264.660156 L 678.929688 1300.960938 L 620.785156 1298.378906 L 600.347656 1352.921875 L 584.824219 1296.769531 L 526.675781 1294.148438 L 575.234375 1262.078125 L 559.761719 1205.921875 "/>
<path fill-rule="nonzero" fill="rgb(100%, 70.117188%, 0%)" fill-opacity="1" d="M 1117.941406 897.171875 L 1146.941406 920.289062 L 1177.890625 899.851562 L 1164.851562 934.550781 L 1193.851562 957.660156 L 1156.820312 956.011719 L 1143.78125 990.75 L 1133.898438 954.980469 L 1096.871094 953.328125 L 1127.820312 932.890625 L 1117.941406 897.171875 "/>
<path fill-rule="nonzero" fill="rgb(100%, 70.117188%, 0%)" fill-opacity="1" d="M 797.421875 1235.460938 L 826.421875 1258.570312 L 857.316406 1238.140625 L 844.328125 1272.878906 L 873.328125 1295.988281 L 836.246094 1294.339844 L 823.257812 1329.03125 L 813.382812 1293.320312 L 776.351562 1291.660156 L 807.296875 1271.21875 L 797.421875 1235.460938 "/>
<path fill-rule="nonzero" fill="rgb(100%, 70.117188%, 0%)" fill-opacity="1" d="M 610.859375 1737.921875 L 651.730469 1770.53125 L 695.328125 1741.71875 L 676.984375 1790.671875 L 717.859375 1823.230469 L 665.644531 1820.890625 L 647.300781 1869.890625 L 633.386719 1819.480469 L 581.175781 1817.140625 L 624.773438 1788.328125 L 610.859375 1737.921875 "/>
<path fill-rule="nonzero" fill="rgb(100%, 70.117188%, 0%)" fill-opacity="1" d="M 731.535156 1486.300781 L 760.535156 1509.421875 L 791.433594 1488.980469 L 778.441406 1523.71875 L 807.394531 1546.828125 L 770.363281 1545.179688 L 757.371094 1579.878906 L 747.492188 1544.160156 L 710.464844 1542.511719 L 741.410156 1522.070312 L 731.535156 1486.300781 "/>
<path fill-rule="nonzero" fill="rgb(100%, 70.117188%, 0%)" fill-opacity="1" d="M 842.867188 1700.789062 L 885.152344 1734.519531 L 930.261719 1704.691406 L 911.234375 1755.339844 L 953.519531 1789.070312 L 899.507812 1786.628906 L 880.53125 1837.285156 L 866.128906 1785.121094 L 812.113281 1782.738281 L 857.273438 1752.910156 L 842.867188 1700.789062 "/>
<path fill-rule="nonzero" fill="rgb(100%, 70.117188%, 0%)" fill-opacity="1" d="M 881.890625 2058.984375 L 910.894531 2082.09375 L 941.792969 2061.660156 L 928.800781 2096.351562 L 957.753906 2119.46875 L 920.722656 2117.8125 L 907.730469 2152.554688 L 897.851562 2116.789062 L 860.824219 2115.136719 L 891.769531 2094.699219 L 881.890625 2058.984375 "/>
<path fill-rule="nonzero" fill="rgb(100%, 70.117188%, 0%)" fill-opacity="1" d="M 1282.320312 1913.003906 L 1311.320312 1936.113281 L 1342.269531 1915.679688 L 1329.230469 1950.421875 L 1358.230469 1973.535156 L 1321.199219 1971.882812 L 1308.160156 2006.574219 L 1298.328125 1970.859375 L 1261.25 1969.203125 L 1292.199219 1948.765625 L 1282.320312 1913.003906 "/>
<path fill-rule="nonzero" fill="rgb(100%, 70.117188%, 0%)" fill-opacity="1" d="M 1204.75 2122.339844 L 1250.199219 2158.589844 L 1298.710938 2126.523438 L 1278.28125 2181.023438 L 1323.769531 2217.273438 L 1265.671875 2214.695312 L 1245.238281 2269.144531 L 1229.761719 2213.089844 L 1171.710938 2210.460938 L 1220.21875 2178.394531 L 1204.75 2122.339844 "/>
<path fill-rule="nonzero" fill="rgb(100%, 70.117188%, 0%)" fill-opacity="1" d="M 1504.839844 1991.101562 L 1533.839844 2014.214844 L 1564.738281 1993.777344 L 1551.75 2028.472656 L 1580.699219 2051.585938 L 1543.671875 2049.933594 L 1530.679688 2084.675781 L 1520.800781 2048.910156 L 1483.769531 2047.257812 L 1514.71875 2026.816406 L 1504.839844 1991.101562 "/>
<path fill-rule="nonzero" fill="rgb(100%, 70.117188%, 0%)" fill-opacity="1" d="M 1707.851562 2164.867188 L 1736.851562 2187.980469 L 1767.75 2167.542969 L 1754.761719 2202.285156 L 1783.761719 2225.402344 L 1746.679688 2223.746094 L 1733.691406 2258.441406 L 1723.808594 2222.722656 L 1686.78125 2221.066406 L 1717.730469 2200.628906 L 1707.851562 2164.867188 "/>
<path fill-rule="nonzero" fill="rgb(100%, 70.117188%, 0%)" fill-opacity="1" d="M 2148.898438 1836.652344 L 2177.898438 1859.769531 L 2208.851562 1839.328125 L 2195.808594 1874.074219 L 2224.808594 1897.1875 L 2187.78125 1895.53125 L 2174.738281 1930.230469 L 2164.859375 1894.511719 L 2127.828125 1892.859375 L 2158.78125 1872.421875 L 2148.898438 1836.652344 "/>
<path fill-rule="nonzero" fill="rgb(100%, 70.117188%, 0%)" fill-opacity="1" d="M 1702.589844 1850.085938 L 1747.359375 1885.800781 L 1795.148438 1854.222656 L 1775 1907.84375 L 1819.769531 1943.5625 L 1762.589844 1940.980469 L 1742.488281 1994.605469 L 1727.261719 1939.421875 L 1670.089844 1936.847656 L 1717.820312 1905.3125 L 1702.589844 1850.085938 "/>
<path fill-rule="nonzero" fill="rgb(100%, 70.117188%, 0%)" fill-opacity="1" d="M 2180.96875 1512.289062 L 2230.410156 1551.75 L 2283.148438 1516.859375 L 2260.921875 1576.078125 L 2310.351562 1615.488281 L 2247.191406 1612.671875 L 2225.011719 1671.890625 L 2208.171875 1610.921875 L 2145.011719 1608.101562 L 2197.800781 1573.261719 L 2180.96875 1512.289062 "/>
<path fill-rule="nonzero" fill="rgb(100%, 70.117188%, 0%)" fill-opacity="1" d="M 1929.449219 1512.039062 L 1958.398438 1535.160156 L 1989.351562 1514.71875 L 1976.308594 1549.460938 L 2005.308594 1572.578125 L 1968.28125 1570.921875 L 1955.230469 1605.621094 L 1945.398438 1569.898438 L 1908.378906 1568.25 L 1939.269531 1547.808594 L 1929.449219 1512.039062 "/>
<path fill-rule="nonzero" fill="rgb(100%, 70.117188%, 0%)" fill-opacity="1" d="M 2145.25 1043.601562 L 2185.640625 1075.808594 L 2228.710938 1047.339844 L 2210.558594 1095.710938 L 2250.941406 1127.921875 L 2199.359375 1125.578125 L 2181.261719 1173.949219 L 2167.488281 1124.179688 L 2115.910156 1121.890625 L 2158.980469 1093.421875 L 2145.25 1043.601562 "/>
<path fill-rule="nonzero" fill="rgb(100%, 70.117188%, 0%)" fill-opacity="1" d="M 1932.121094 994.398438 L 1972.460938 1026.609375 L 2015.570312 998.148438 L 1997.421875 1046.511719 L 2037.808594 1078.730469 L 1986.230469 1076.390625 L 1968.078125 1124.761719 L 1954.359375 1074.980469 L 1902.78125 1072.691406 L 1945.851562 1044.230469 L 1932.121094 994.398438 "/>
<path fill-rule="nonzero" fill="rgb(100%, 70.117188%, 0%)" fill-opacity="1" d="M 1502.308594 775.820312 L 1542.699219 808.03125 L 1585.761719 779.558594 L 1567.660156 827.929688 L 1608 860.101562 L 1556.421875 857.808594 L 1538.320312 906.179688 L 1524.550781 856.398438 L 1472.96875 854.058594 L 1516.078125 825.601562 L 1502.308594 775.820312 "/>
<path fill-rule="nonzero" fill="rgb(100%, 70.117188%, 0%)" fill-opacity="1" d="M 1992.171875 1253.421875 L 2021.171875 1276.53125 L 2052.070312 1256.089844 L 2039.078125 1290.839844 L 2068.03125 1313.949219 L 2031 1312.300781 L 2018.011719 1346.988281 L 2008.128906 1311.269531 L 1971.101562 1309.621094 L 2002.050781 1289.179688 L 1992.171875 1253.421875 "/>
<path fill-rule="nonzero" fill="rgb(100%, 70.117188%, 0%)" fill-opacity="1" d="M 1790.039062 815.859375 L 1818.988281 838.980469 L 1849.929688 818.539062 L 1836.890625 853.238281 L 1865.890625 876.351562 L 1828.859375 874.75 L 1815.820312 909.441406 L 1806 873.671875 L 1768.96875 872.019531 L 1799.859375 851.578125 L 1790.039062 815.859375 "/>
<path fill-rule="nonzero" fill="rgb(100%, 70.117188%, 0%)" fill-opacity="1" d="M 1638.988281 615.191406 L 1668 638.308594 L 1698.941406 617.871094 L 1685.898438 652.609375 L 1714.898438 675.71875 L 1677.871094 674.070312 L 1664.828125 708.769531 L 1655 673.050781 L 1617.96875 671.390625 L 1648.871094 650.960938 L 1638.988281 615.191406 "/>
<path fill-rule="nonzero" fill="rgb(100%, 70.117188%, 0%)" fill-opacity="1" d="M 1266.261719 713.339844 L 1295.210938 736.449219 L 1326.160156 716.019531 L 1313.121094 750.710938 L 1342.121094 773.820312 L 1305.089844 772.171875 L 1292.101562 806.910156 L 1282.21875 771.148438 L 1245.191406 769.488281 L 1276.089844 749.058594 L 1266.261719 713.339844 "/>
<path fill-rule="nonzero" fill="rgb(100%, 70.117188%, 0%)" fill-opacity="1" d="M 1014.980469 549.109375 L 1058.578125 583.851562 L 1105.050781 553.148438 L 1085.488281 605.359375 L 1129.089844 640.109375 L 1073.421875 637.621094 L 1053.808594 689.839844 L 1038.96875 636.070312 L 983.300781 633.578125 L 1029.820312 602.878906 L 1014.980469 549.109375 "/>
</svg>
